<svg width="22" height="25" viewBox="0 0 22 25" fill="none" xmlns="http://www.w3.org/2000/svg">
<path d="M17.7332 23.8898C16.4266 25.1565 14.9999 24.9565 13.6266 24.3565C12.1732 23.7431 10.8399 23.7165 9.30656 24.3565C7.38656 25.1831 6.37323 24.9431 5.22656 23.8898C-1.28011 17.1831 -0.320107 6.96979 7.06656 6.59646C8.86656 6.68979 10.1199 7.58313 11.1732 7.66313C12.7466 7.34313 14.2532 6.42313 15.9332 6.54313C17.9466 6.70313 19.4666 7.50313 20.4666 8.94313C16.3066 11.4365 17.2932 16.9165 21.1066 18.4498C20.3466 20.4498 19.3599 22.4365 17.7199 23.9031L17.7332 23.8898ZM11.0399 6.51646C10.8399 3.54313 13.2532 1.08979 16.0266 0.849792C16.4132 4.28979 12.9066 6.84979 11.0399 6.51646Z" fill="black"/>
</svg>
