<svg width="24" height="25" viewBox="0 0 24 25" fill="none" xmlns="http://www.w3.org/2000/svg">
<path d="M21.872 1.75543H2.13014C1.45393 1.75543 0.905762 2.3036 0.905762 2.97981V22.7217C0.905762 23.3979 1.45393 23.9461 2.13014 23.9461H21.872C22.5482 23.9461 23.0964 23.3979 23.0964 22.7217V2.97981C23.0964 2.3036 22.5482 1.75543 21.872 1.75543Z" fill="#3D5A98"/>
<path d="M16.215 23.9442V15.3511H19.0987L19.53 12.0023H16.215V9.8648C16.215 8.89543 16.485 8.23355 17.8743 8.23355H19.6481V5.23355C18.7892 5.1442 17.926 5.10164 17.0625 5.10605C14.5087 5.10605 12.75 6.6623 12.75 9.53293V12.0023H9.86621V15.3511H12.75V23.9442H16.215Z" fill="white"/>
</svg>
