<svg width="25" height="25" viewBox="0 0 25 25" fill="none" xmlns="http://www.w3.org/2000/svg">
<g clip-path="url(#clip0_608_434)">
<path d="M8.86055 1.63916C6.46258 2.47104 4.39457 4.04998 2.96029 6.14404C1.526 8.23811 0.801037 10.7369 0.891883 13.2735C0.982728 15.81 1.88459 18.2506 3.46501 20.2367C5.04543 22.2228 7.22109 23.6497 9.67243 24.3079C11.6598 24.8207 13.7419 24.8432 15.7399 24.3735C17.5499 23.967 19.2233 23.0973 20.5962 21.8498C22.0251 20.5117 23.0622 18.8094 23.5962 16.926C24.1765 14.8779 24.2798 12.724 23.8981 10.6298H12.7381V15.2592H19.2012C19.072 15.9975 18.7952 16.7022 18.3873 17.3311C17.9795 17.96 17.4489 18.5001 16.8274 18.9192C16.0382 19.4412 15.1485 19.7925 14.2156 19.9504C13.2798 20.1244 12.32 20.1244 11.3843 19.9504C10.4359 19.7543 9.53874 19.3629 8.74993 18.801C7.48271 17.904 6.5312 16.6296 6.03118 15.1598C5.52271 13.6624 5.52271 12.039 6.03118 10.5417C6.3871 9.49207 6.97549 8.53642 7.75243 7.74604C8.64154 6.82494 9.76718 6.16653 11.0058 5.84306C12.2445 5.51958 13.5484 5.54353 14.7743 5.91229C15.732 6.20627 16.6078 6.71992 17.3318 7.41229C18.0606 6.68729 18.7881 5.96041 19.5143 5.23166C19.8893 4.83979 20.2981 4.46666 20.6674 4.06541C19.5622 3.03693 18.265 2.23665 16.8499 1.71041C14.2731 0.77477 11.4536 0.749625 8.86055 1.63916Z" fill="white"/>
<path d="M8.8607 1.63916C11.4536 0.749016 14.2731 0.773499 16.8501 1.70853C18.2654 2.23834 19.562 3.04248 20.6657 4.07478C20.2907 4.47603 19.8951 4.85103 19.5126 5.24103C18.7851 5.96728 18.0582 6.69103 17.332 7.41228C16.6079 6.71992 15.7321 6.20627 14.7745 5.91228C13.5489 5.54224 12.2451 5.5169 11.0061 5.83905C9.76712 6.1612 8.64079 6.8184 7.7507 7.73853C6.97377 8.52891 6.38538 9.48456 6.02945 10.5342L2.14258 7.52478C3.53384 4.76584 5.94273 2.65545 8.8607 1.63916Z" fill="#E33629"/>
<path d="M1.1114 10.506C1.32032 9.47064 1.66716 8.46795 2.14265 7.52478L6.02953 10.5417C5.52105 12.039 5.52105 13.6624 6.02953 15.1598C4.73453 16.1598 3.4389 17.1648 2.14265 18.1748C0.952308 15.8054 0.589275 13.1057 1.1114 10.506Z" fill="#F8BD00"/>
<path d="M12.7381 10.6279H23.8981C24.2799 12.7222 24.1766 14.8761 23.5963 16.9242C23.0623 18.8076 22.0252 20.5098 20.5963 21.8479C19.3419 20.8692 18.0819 19.8979 16.8275 18.9192C17.4494 18.4997 17.9802 17.959 18.3881 17.3294C18.796 16.6999 19.0726 15.9944 19.2013 15.2554H12.7381C12.7363 13.7142 12.7381 12.1711 12.7381 10.6279Z" fill="#587DBD"/>
<path d="M2.14062 18.1748C3.43687 17.1748 4.7325 16.1698 6.0275 15.1598C6.52851 16.6302 7.48138 17.9046 8.75 18.801C9.54126 19.3603 10.4404 19.7485 11.39 19.941C12.3257 20.115 13.2855 20.115 14.2212 19.941C15.1542 19.7831 16.0439 19.4318 16.8331 18.9098C18.0875 19.8885 19.3475 20.8598 20.6019 21.8385C19.2292 23.0868 17.5558 23.9571 15.7456 24.3642C13.7476 24.8339 11.6655 24.8113 9.67812 24.2985C8.10632 23.8789 6.63814 23.139 5.36562 22.1254C4.01874 21.0561 2.91867 19.7085 2.14062 18.1748Z" fill="#319F43"/>
</g>
<defs>
<clipPath id="clip0_608_434">
<rect width="24" height="24" fill="white" transform="translate(0.5 0.849792)"/>
</clipPath>
</defs>
</svg>
